<?xml version="1.0" encoding="UTF-8"?>
<!DOCTYPE svg PUBLIC "-//W3C//DTD SVG 1.1//EN" "http://www.w3.org/Graphics/SVG/1.1/DTD/svg11.dtd">
<svg version="1.1" xmlns="http://www.w3.org/2000/svg" xmlns:xlink="http://www.w3.org/1999/xlink" x="0" y="0" width="512" height="512" viewBox="0, 0, 512, 512">
  <g id="Layer_1">
    <path d="M41.081,459.126 C39.06,462.935 40.357,466.165 41.311,467.751 C42.264,469.336 44.507,471.998 48.82,471.998 L236.094,471.998 C247.14,471.998 256.094,480.952 256.094,491.998 C256.094,503.044 247.14,511.998 236.094,511.998 L48.82,511.998 C31.551,511.998 15.928,503.162 7.03,488.362 C-1.821,473.641 -2.341,455.814 5.623,440.614 L212.721,26.335 C212.794,26.189 212.869,26.043 212.947,25.899 C221.427,9.926 237.93,0.003 256.015,0.003 C274.1,0.003 290.603,9.926 299.082,25.899 C299.115,25.96 299.146,26.021 299.179,26.083 L349.775,123.807 C354.853,133.615 351.018,145.683 341.21,150.762 C331.4,155.839 319.332,152.006 314.254,142.197 L263.717,44.587 C261.563,40.601 257.971,40.004 256.015,40.004 C254.074,40.004 250.521,40.592 248.362,44.497 L155.517,230.222 C159.5,231.387 163.894,231.976 168.753,231.996 C180.126,231.953 189.109,229.254 196.201,223.742 C206.463,215.766 219.216,211.246 232.113,211.012 C246.147,210.741 260.049,215.456 271.25,224.249 C279.938,231.069 281.452,243.642 274.632,252.33 C267.812,261.018 255.24,262.533 246.551,255.712 C242.571,252.588 237.744,250.934 232.842,251.004 C228.464,251.084 224.281,252.578 220.746,255.325 C206.638,266.292 189.233,271.893 169.017,271.991 L169.017,272 L168.479,272 C168.334,272 168.189,271.999 168.044,271.996 C156.981,271.89 146.773,269.967 137.491,266.281 L41.306,458.689 C41.233,458.836 41.158,458.981 41.081,459.126 z M511.803,439.014 C510.855,445.718 506.591,451.496 500.452,454.354 C499.15,454.96 471.081,467.712 416.013,470.466 L416.013,491.997 C416.013,503.043 407.059,511.997 396.013,511.997 C384.967,511.997 376.014,503.043 376.014,491.997 L376.014,470.598 C319.089,468.164 286.95,455.346 285.475,454.746 C279.032,452.124 274.414,446.342 273.282,439.479 C272.15,432.616 274.664,425.657 279.922,421.104 C287.019,414.921 303.273,398.393 313.481,380.268 C309.826,378.945 306.821,377.708 304.388,376.705 C303.409,376.302 302.525,375.936 301.726,375.623 C294.748,372.892 289.881,366.488 289.12,359.032 C288.359,351.576 291.828,344.321 298.109,340.234 C305.312,335.512 322.78,321.898 332.914,307.044 C326.674,305.21 322.374,303.513 320.123,302.546 C313.528,299.714 308.957,293.567 308.144,286.436 C307.331,279.305 310.401,272.286 316.188,268.042 C352.952,241.082 373.359,176.711 373.561,176.064 C376.151,167.762 383.81,162.075 392.506,162.01 C401.166,161.968 408.947,167.498 411.66,175.76 C411.873,176.405 433.825,242.012 468.37,269.154 C473.956,273.544 476.795,280.569 475.826,287.608 C474.857,294.647 470.226,300.642 463.662,303.359 C460.645,304.608 457.519,305.902 454.273,307.099 C464.222,322.445 480.983,335.274 488.563,340.007 C494.955,343.997 498.582,351.254 497.913,358.758 C497.245,366.263 492.436,372.768 485.44,375.566 C480.95,377.362 476.31,378.95 471.599,380.358 C481.812,398.447 498.027,414.934 505.128,421.121 C510.233,425.571 512.752,432.31 511.803,439.014 z M435.469,347.538 C426.727,338.256 418.172,326.843 412.636,313.753 C405.989,314.464 399.547,314.999 393.156,314.999 C393.098,314.999 393.041,314.999 392.983,314.999 C386.401,314.989 380.225,314.734 374.465,314.302 C368.694,327.358 359.526,339.019 350.314,348.5 C350.385,348.539 350.459,348.573 350.528,348.612 C359.278,350.031 369.945,350.998 383.013,350.998 C383.255,350.998 383.497,351.002 383.74,351.011 C384.082,351.024 408.625,351.792 435.469,347.538 z M367.223,273.362 C374.619,274.324 383.251,274.985 393.043,275 C399.744,274.976 407.716,274.082 416.178,273.098 C416.541,273.056 416.906,273.014 417.272,272.971 C407.542,260.08 399.343,246.03 392.775,233.143 C386.064,246.176 377.56,260.373 367.223,273.362 z M454.581,425.931 C446.105,415.556 437.211,402.681 430.975,388.533 C413.217,390.708 397.733,391.083 389.207,391.084 C385.875,391.084 383.607,391.027 382.678,390.999 C371.789,390.987 362.165,390.38 353.676,389.405 C347.554,403.006 339.008,415.394 330.817,425.476 C346.529,428.386 368.078,430.999 394.793,430.999 C420.188,430.998 440.097,428.638 454.581,425.931 z" fill="#5FECC8
    "/>
  </g>
</svg>
