<?xml version="1.0" encoding="UTF-8"?>
<!DOCTYPE svg PUBLIC "-//W3C//DTD SVG 1.1//EN" "http://www.w3.org/Graphics/SVG/1.1/DTD/svg11.dtd">
<svg version="1.1" xmlns="http://www.w3.org/2000/svg" xmlns:xlink="http://www.w3.org/1999/xlink" x="0" y="0" width="512" height="512" viewBox="0, 0, 512, 512">
  <g id="Layer_1">
    <path d="M492,80 L371,80 C359.954,80 351,88.954 351,100 C351,111.046 359.954,120 371,120 L371,451.5 C371,484.86 398.14,512 431.5,512 C464.86,512 492,484.86 492,451.5 L492,301 C492,289.954 483.046,281 472,281 L411,281 L411,120 L452,120 L452,212 C452,223.046 460.954,232 472,232 C483.046,232 492,223.046 492,212 L492,120 C503.046,120 512,111.046 512,100 C512,88.954 503.046,80 492,80 z M452,321 L452,451.5 C452,462.804 442.804,472 431.5,472 C420.196,472 411,462.804 411,451.5 L411,321 z M179.441,308 C168.395,308 159.441,299.046 159.441,288 C159.441,276.954 168.395,268 179.441,268 C190.487,268 199.441,276.954 199.441,288 C199.441,299.046 190.487,308 179.441,308 z M151,342 C151,353.046 142.046,362 131,362 C119.954,362 111,353.046 111,342 C111,330.954 119.954,322 131,322 C142.046,322 151,330.954 151,342 z M236.892,198.207 C230.276,194.95 226,187.962 226,180.405 L226,40 C237.046,40 246,31.046 246,20 C246,8.954 237.046,0 226,0 L103,0 C91.954,0 83,8.954 83,20 C83,31.046 91.954,40 103,40 L103,179.983 C103,187.55 98.719,194.542 92.094,197.794 C65.064,211.065 42.189,231.55 25.94,257.038 C9.323,283.102 0.357,313.374 0.011,344.581 C-0.481,388.858 16.153,430.601 46.848,462.118 C77.557,493.651 118.85,511.36 163.119,511.984 C163.923,511.995 164.721,512.001 165.524,512.001 C209.301,512 250.477,495.133 281.694,464.353 C313.49,433.001 331,391.147 331,346.5 C331,315.146 321.804,284.505 304.405,257.891 C287.728,232.379 264.382,211.741 236.892,198.207 z M253.611,435.869 C229.505,459.638 197.536,472.484 163.684,471.987 C109.758,471.227 64.076,436.233 47.087,388 L68,388 C79.046,388 88,379.046 88,368 C88,356.954 79.046,348 68,348 L40.013,348 C40.001,347.011 39.997,346.019 40.008,345.025 C40.539,297.208 67.252,254.551 109.721,233.7 C129.938,223.775 143,202.69 143,179.983 L143,40 L186,40 L186,180.405 C186,203.083 199.042,224.157 219.224,234.093 C262.826,255.561 291,299.683 291,346.5 C291,347.004 290.987,347.505 290.982,348.008 C290.93,348.008 290.879,348 290.827,348 L194,348 C182.954,348 174,356.954 174,368 C174,379.046 182.954,388 194,388 L284.007,388 C277.774,405.851 267.492,422.182 253.611,435.869 z" fill="#5FECC8"/>
  </g>
</svg>
