<?xml version="1.0" encoding="UTF-8"?>
<!DOCTYPE svg PUBLIC "-//W3C//DTD SVG 1.1//EN" "http://www.w3.org/Graphics/SVG/1.1/DTD/svg11.dtd">
<svg version="1.1" xmlns="http://www.w3.org/2000/svg" xmlns:xlink="http://www.w3.org/1999/xlink" x="0" y="0" width="512" height="512" viewBox="0, 0, 512, 512">
  <g id="Layer_1">
    <path d="M460.973,440.671 C457.481,430.192 446.155,424.531 435.675,428.022 C425.196,431.515 419.533,442.841 423.026,453.32 C432.88,482.885 447.182,502.869 447.786,503.705 C451.696,509.119 457.812,511.997 464.016,511.997 C468.073,511.997 472.168,510.766 475.709,508.209 C484.663,501.741 486.679,489.24 480.212,480.285 C480.1,480.13 468.786,464.111 460.973,440.671 z M439.998,254.997 C457.643,254.997 471.998,240.643 472.001,222.997 C472.001,210.742 465.681,200.209 455.096,194.821 C448.39,191.409 444.167,184.521 444.167,176.997 L444.167,175.997 C444.167,172.325 445.177,168.725 447.088,165.59 C450.092,160.66 451.68,154.919 451.68,148.986 C451.68,133.846 441.108,121.137 426.96,117.831 C416.297,144.277 390.386,162.998 360.168,162.998 C349.122,162.998 340.168,154.044 340.168,142.998 C340.168,131.952 349.122,122.998 360.168,122.998 C377.813,122.998 392.168,108.643 392.168,90.998 C392.168,73.353 377.621,58.998 359.741,58.998 C347.924,58.998 337.521,65.437 331.913,76.223 C328.428,82.924 321.468,87.045 313.913,86.995 L312.147,86.973 C302.744,86.854 294.693,80.199 292.808,70.985 C289.134,53.03 273.391,39.998 255.376,39.998 C234.308,39.998 217.168,57.363 217.168,78.707 C217.168,89.753 208.214,98.707 197.168,98.707 C186.122,98.707 177.168,89.753 177.168,78.707 C177.168,76.443 177.286,74.207 177.473,71.99 C171.553,63.78 162.436,58.998 152.263,58.998 C134.382,58.998 119.836,73.353 119.836,90.998 C119.836,91.167 119.815,91.33 119.811,91.498 C119.815,91.666 119.836,91.829 119.836,91.998 C119.836,109.643 134.383,123.998 152.263,123.998 C163.309,123.998 172.263,132.952 172.263,143.998 C172.263,155.044 163.309,163.998 152.263,163.998 C121.515,163.998 95.198,144.841 84.708,117.911 C70.728,121.338 60.323,133.967 60.323,148.988 C60.323,154.93 63.014,164.558 66.081,169.592 C67.797,172.407 68.79,175.603 68.972,178.894 L69.138,181.894 C69.51,188.605 66.486,195.053 61.09,199.059 C54.75,203.765 40.003,216.493 40.003,232.999 C40.003,250.644 54.358,264.999 72.003,264.999 C82.811,264.999 91.028,263.835 99.728,262.604 C109.487,261.222 120.193,259.718 134.605,259.916 C141.558,227.434 170.474,202.999 205.002,202.999 C224.795,202.999 258.001,200.27 258.001,181.999 C258.001,170.971 249.029,161.999 238.001,161.999 C226.955,161.999 218.001,153.045 218.001,141.999 C218.001,130.953 226.955,121.999 238.001,121.999 C271.084,121.999 298,148.914 298,181.998 C298,202.204 288.012,219.097 269.874,229.567 C254.221,238.604 233.001,242.997 205,242.997 C187.355,242.997 173,257.352 173,274.997 C173,292.642 187.355,306.997 205,306.997 C244.104,306.997 294.208,304.69 334.915,286.703 C345.019,282.238 356.827,286.81 361.292,296.914 C365.756,307.018 361.185,318.826 351.082,323.291 C340.375,328.022 329.264,331.817 317.985,334.869 C350.692,349.359 391.118,358.997 423.498,358.997 C440.316,358.997 453.998,345.314 453.998,328.497 C453.998,311.68 440.091,297.997 422.998,297.997 C412.628,297.997 403.979,290.071 403.074,279.741 C402.169,269.411 409.31,260.104 419.522,258.302 L436.522,255.302 C437.67,255.099 438.833,254.997 439.998,254.997 z M511.997,222.998 C511.997,248.723 498.439,271.337 478.09,284.074 C488.032,296.207 493.997,311.674 493.997,328.498 C493.997,367.371 462.372,398.997 423.498,398.997 C402.86,398.997 379.822,395.771 356.999,390.132 C375.273,413.942 393.824,443.818 412.163,483.628 C416.784,493.66 412.398,505.54 402.366,510.161 C399.657,511.41 396.811,512.001 394.011,512.001 C386.445,512.001 379.206,507.686 375.833,500.364 C336.125,414.169 296.86,380.073 258.886,347.098 C258.165,346.472 257.52,345.792 256.91,345.091 C238.59,346.624 220.94,346.997 205.001,346.997 C174.083,346.997 147.659,327.404 137.479,299.984 C124.523,299.501 115.454,300.774 105.334,302.207 C96.097,303.515 85.627,304.997 72.002,304.997 C32.302,304.997 0.003,272.699 0.003,232.998 C0.003,212.921 9.185,193.07 25.614,176.88 C22.334,167.723 20.323,157.543 20.323,148.987 C20.323,113.117 46.693,83.295 81.064,77.874 C87.291,44.422 116.836,19 152.262,19 C167.001,19 181.012,23.561 192.698,31.685 C206.97,12.465 229.753,0 255.375,0 C280.808,0 304.007,12.559 318.425,32.295 C330.282,23.784 344.63,19 359.738,19 C395.164,19 424.71,44.422 430.937,77.874 C465.307,83.296 491.677,113.116 491.677,148.987 C491.677,156.086 490.645,163.088 488.642,169.78 C503.355,183.098 511.997,202.249 511.997,222.998 z" fill="#5FECC8"/>
  </g>
</svg>
