<?xml version="1.0" encoding="UTF-8"?>
<!DOCTYPE svg PUBLIC "-//W3C//DTD SVG 1.1//EN" "http://www.w3.org/Graphics/SVG/1.1/DTD/svg11.dtd">
<svg version="1.1" xmlns="http://www.w3.org/2000/svg" xmlns:xlink="http://www.w3.org/1999/xlink" x="0" y="0" width="512" height="512" viewBox="0, 0, 512, 512">
  <g id="Layer_1">
    <path d="M512,169.273 C512,239.289 462.145,297.98 424.645,336.039 C420.73,340.012 415.562,342 410.395,342 C405.324,342 400.258,340.086 396.359,336.246 C388.492,328.492 388.398,315.828 396.152,307.965 C447.898,255.449 472,211.379 472,169.273 C472,107.289 431.699,64 374,64 C336.48,64 308.777,78.113 291.656,105.953 C278.07,128.051 275.953,151.051 275.934,151.281 C275.133,161.699 266.445,169.699 255.996,169.699 C245.547,169.699 236.859,161.609 236.059,151.191 C236.047,151.051 233.93,128.051 220.34,105.953 C203.223,78.113 175.52,64 138,64 C80.301,64 40,107.289 40,169.273 C40,197.227 50.605,225.969 72.383,257 L119.855,257 L153.035,189.207 C156.449,182.234 163.617,177.84 171.355,178.004 C179.121,178.141 186.102,182.762 189.266,189.852 L230.129,281.445 L256.152,229.977 C259.531,223.297 266.355,219.062 273.84,219 L274.004,219 C281.426,219 288.238,223.109 291.699,229.688 L306.074,257 L351,257 C362.047,257 371,265.953 371,277 C371,288.047 362.047,297 351,297 L294,297 C286.574,297 279.762,292.887 276.301,286.316 L274.355,282.617 L246.848,337.023 C243.441,343.766 236.531,348 229.004,348 C228.84,348 228.68,347.996 228.516,347.992 C220.801,347.809 213.883,343.195 210.734,336.148 L170.16,245.207 L150.297,285.793 C146.941,292.652 139.969,297 132.332,297 L20,297 C8.953,297 0,288.047 0,277 C0,265.953 8.953,257 20,257 L25.07,257 C8.242,227.234 0,198.312 0,169.273 C0,126.797 13.945,90.223 40.332,63.504 C65.484,38.027 100.172,24 138,24 C204.137,24 238.332,58.031 255.371,86.578 C255.582,86.93 255.793,87.285 256,87.641 C256.207,87.285 256.418,86.93 256.629,86.578 C273.668,58.031 307.863,24 374,24 C411.828,24 446.516,38.027 471.668,63.504 C498.055,90.223 512,126.797 512,169.273 z M325.809,372.73 L325.352,373.133 C299.93,395.434 275.629,416.773 256,437.676 C236.371,416.77 212.066,395.434 186.645,373.129 C173.105,361.254 159.105,348.973 145.535,336.496 C137.402,329.02 124.75,329.551 117.277,337.684 C109.801,345.812 110.332,358.465 118.465,365.941 C132.379,378.734 146.555,391.172 160.266,403.199 C191.594,430.684 221.188,456.645 240.422,480.539 C240.441,480.566 240.465,480.59 240.484,480.617 C240.574,480.727 240.668,480.832 240.762,480.938 C241.121,481.363 241.492,481.773 241.883,482.164 C241.906,482.188 241.926,482.211 241.945,482.23 C242.418,482.699 242.91,483.133 243.418,483.543 C243.434,483.555 243.445,483.566 243.461,483.578 C243.469,483.59 243.48,483.594 243.488,483.602 C243.93,483.957 244.383,484.289 244.852,484.602 C244.879,484.621 244.91,484.641 244.938,484.66 C245.379,484.953 245.832,485.23 246.293,485.484 C246.324,485.504 246.355,485.523 246.391,485.539 C246.836,485.785 247.289,486.008 247.754,486.219 C247.867,486.27 247.984,486.316 248.098,486.367 C248.473,486.527 248.852,486.68 249.234,486.816 C249.336,486.852 249.438,486.895 249.535,486.93 C249.965,487.074 250.398,487.199 250.836,487.316 C251.008,487.363 251.176,487.402 251.348,487.445 C251.703,487.531 252.062,487.605 252.426,487.672 C252.566,487.695 252.707,487.723 252.848,487.746 C253.27,487.812 253.695,487.863 254.117,487.906 C254.27,487.918 254.418,487.93 254.57,487.941 C255.027,487.977 255.484,487.996 255.941,487.996 C255.957,487.996 255.977,488 255.992,488 L256.004,488 L256.016,488 C256.031,488 256.047,487.996 256.062,487.996 C256.523,487.996 256.977,487.973 257.434,487.941 C257.586,487.93 257.738,487.918 257.887,487.906 C258.312,487.863 258.73,487.816 259.152,487.746 C259.297,487.727 259.441,487.695 259.59,487.672 C259.945,487.605 260.301,487.531 260.656,487.445 C260.828,487.406 261,487.363 261.172,487.316 C261.605,487.199 262.039,487.074 262.465,486.93 C262.57,486.895 262.676,486.852 262.781,486.812 C263.156,486.68 263.531,486.531 263.898,486.371 C264.02,486.32 264.141,486.27 264.258,486.215 C264.715,486.008 265.168,485.785 265.609,485.543 C265.648,485.523 265.688,485.5 265.727,485.477 C266.18,485.227 266.621,484.953 267.059,484.664 C267.094,484.645 267.129,484.621 267.16,484.598 C267.625,484.289 268.074,483.957 268.516,483.602 C268.523,483.594 268.535,483.59 268.547,483.578 C268.562,483.566 268.574,483.555 268.59,483.539 C269.094,483.129 269.586,482.695 270.059,482.23 C270.082,482.211 270.102,482.184 270.125,482.16 C270.512,481.773 270.887,481.363 271.246,480.938 C271.336,480.832 271.43,480.727 271.52,480.617 C271.539,480.59 271.562,480.566 271.586,480.539 C290.816,456.645 320.406,430.684 351.734,403.203 L352.195,402.797 C360.496,395.516 361.324,382.879 354.039,374.574 C346.75,366.273 334.113,365.445 325.809,372.73 z M325.809,372.73" fill="#5FECC8"/>
  </g>
</svg>
