<?xml version="1.0" encoding="UTF-8"?>
<!DOCTYPE svg PUBLIC "-//W3C//DTD SVG 1.1//EN" "http://www.w3.org/Graphics/SVG/1.1/DTD/svg11.dtd">
<svg version="1.1" xmlns="http://www.w3.org/2000/svg" xmlns:xlink="http://www.w3.org/1999/xlink" x="0" y="0" width="512" height="512" viewBox="0, 0, 512, 512">
  <g id="Layer_1">
    <path d="M391,177 C379.954,177 371,185.954 371,197 C371,208.046 379.954,217 391,217 L412,217 C423.046,217 432,208.046 432,197 C432,185.954 423.046,177 412,177 L391,177 z M492,327 C480.954,327 472,318.046 472,307 L472,177 C472,154.944 454.056,137 432,137 L371.639,137 C345.946,137 323.119,120.658 314.839,96.334 L308.787,78.554 C306.027,70.447 298.419,65 289.854,65 L162.084,65 C153.685,65 146.125,70.307 143.273,78.207 L136.348,97.38 C127.814,121.014 105.235,136.915 80.119,137 C80.079,137.001 80.041,137.001 80,137 C57.944,137 40,154.944 40,177 L40,407 C40,429.056 57.944,447 80,447 L432,447 C454.056,447 472,429.056 472,407 C472,395.954 480.954,387 492,387 C503.046,387 512,395.954 512,407 C512,451.112 476.112,487 432,487 L80,487 C35.888,487 0,451.112 0,407 L0,177 C0,132.944 35.797,97.092 79.831,97 C79.86,97.001 79.888,97 79.916,97 C88.315,97 95.875,91.693 98.727,83.793 L105.652,64.62 C114.208,40.923 136.887,25 162.084,25 L289.855,25 C315.549,25 338.376,41.343 346.655,65.667 L352.706,83.446 C355.465,91.552 363.074,97 371.639,97 L432,97 C476.112,97 512,132.888 512,177 L512,307 C512,318.046 503.046,327 492,327 z M222,367 C268.869,367 307,328.869 307,282 C307,235.131 268.869,197 222,197 C175.131,197 137,235.131 137,282 C137,328.869 175.131,367 222,367 z M222,157 C290.925,157 347,213.075 347,282 C347,350.925 290.925,407 222,407 C153.075,407 97,350.925 97,282 C97,213.075 153.075,157 222,157 z" fill="#5FECC8"/>
  </g>
</svg>
