<?xml version="1.0" encoding="UTF-8"?>
<svg width="512px" height="512px" viewBox="0 0 512 512" version="1.1" xmlns="http://www.w3.org/2000/svg" xmlns:xlink="http://www.w3.org/1999/xlink">
    <title>EN</title>
    <g id="EN" stroke="none" stroke-width="1" fill="none" fill-rule="evenodd">
        <path d="M256,0 C114.615104,0 0,114.615104 0,256 C0,397.384896 114.615104,512 256,512 C397.384896,512 512,397.384896 512,256 C512,114.615104 397.384896,0 256,0 Z M256,64 C362.038672,64 448,149.961328 448,256 C448,362.038672 362.038672,448 256,448 C149.961328,448 64,362.038672 64,256 C64,149.961328 149.961328,64 256,64 Z" id="Oval-Copy-2" fill="#E7E7E7" fill-rule="nonzero"></path>
        <path d="M256,0 C397.384896,0 512,114.615104 512,256 C512,397.384896 397.384896,512 256,512 C114.615104,512 0,397.384896 0,256 C0,238.326888 14.326888,224 32,224 C49.4963809,224 63.7131276,238.041783 63.9957129,255.470821 L64,256 C64,362.038672 149.961328,448 256,448 C362.038672,448 448,362.038672 448,256 C448,151.021715 363.749302,65.7212343 259.175071,64.0257225 L256,64 C238.326888,64 224,49.673112 224,32 C224,14.326888 238.326888,0 256,0 Z" id="Path" fill="#FF4D64" fill-rule="nonzero"></path>
    </g>
</svg>