<?xml version="1.0" encoding="UTF-8"?>
<!DOCTYPE svg PUBLIC "-//W3C//DTD SVG 1.1//EN" "http://www.w3.org/Graphics/SVG/1.1/DTD/svg11.dtd">
<svg version="1.1" xmlns="http://www.w3.org/2000/svg" xmlns:xlink="http://www.w3.org/1999/xlink" x="0" y="0" width="512.003" height="512.003" viewBox="0, 0, 512.003, 512.003">
  <g id="Layer_1">
    <path d="M455.469,0.025 C470.851,0.32 484.458,6.874 495.611,17.196 C507.911,29.784 513.723,47.056 511.557,64.582 C507.313,98.918 497.147,150.252 472.819,199.814 C467.952,209.728 455.97,213.821 446.053,208.956 C436.138,204.088 432.045,192.104 436.912,182.189 C458.789,137.619 467.991,90.964 471.859,59.675 C472.526,54.286 470.755,48.992 467.002,45.15 C464.859,42.956 460.205,39.38 453.139,40.09 C407.15,44.697 321.171,61.09 261.886,119.113 L256.498,124.543 C255.504,125.838 254.337,127.004 253.036,128.032 L123.331,258.727 L252.435,387.702 L377.78,260.94 C383.728,254.925 392.542,253.493 399.875,256.632 C400.211,256.717 400.548,256.785 400.883,256.888 C411.44,260.136 417.365,271.327 414.117,281.885 L347.655,497.885 C345.593,504.587 340.171,509.72 333.365,511.412 C331.768,511.81 330.147,512.003 328.54,512.003 C323.303,512.004 318.2,509.944 314.404,506.152 L216.894,408.739 C213.895,429.264 204.516,449.027 188.755,464.788 C172.687,480.857 140.198,493.251 89.429,502.682 C54.165,509.233 23.273,511.828 21.975,511.934 C21.425,511.98 20.874,512.002 20.327,512.002 C15.045,512.002 9.952,509.911 6.186,506.145 C2.03,501.988 -0.088,496.213 0.396,490.356 C0.503,489.058 3.098,458.166 9.648,422.902 C19.079,372.134 31.474,339.644 47.542,323.576 C63.278,307.839 83.004,298.467 103.494,295.452 L5.866,197.921 C0.939,192.999 -1.073,185.869 0.555,179.097 C2.183,172.325 7.217,166.888 13.842,164.743 L229.537,94.927 L233.597,90.836 C233.662,90.77 233.728,90.704 233.794,90.64 C263.618,61.411 301.605,38.533 346.697,22.638 C386.289,8.683 424.265,2.782 449.152,0.29 L452.395,0.056 L455.469,0.025 z M101.331,336.724 C91.792,339.502 83.047,344.639 75.826,351.86 C60.709,366.976 48.607,423.38 42.804,469.526 C88.948,463.723 145.354,451.621 160.469,436.503 C167.826,429.146 172.858,420.334 175.576,410.985 C167.879,414.708 156.414,418.539 138.71,421.772 C122.475,424.737 108.183,425.891 107.583,425.939 C107.054,425.981 106.525,426.002 105.999,426.002 C100.695,426.002 95.582,423.892 91.813,420.099 C87.67,415.929 85.571,410.147 86.074,404.291 C86.125,403.693 87.365,389.485 90.416,373.335 C93.734,355.771 97.599,344.38 101.331,336.724 z M353.719,342.163 L280.735,415.974 L319.188,454.389 L353.719,342.163 z M149.563,347.342 C145.475,347.342 141.63,348.921 138.724,351.791 C135.699,355.382 132.058,367.935 129.319,382.837 C144.292,380.186 156.923,376.612 160.55,373.598 C163.414,370.693 164.99,366.852 164.99,362.769 C164.99,359.768 164.13,356.904 162.543,354.441 L157.879,349.782 C155.418,348.2 152.558,347.342 149.563,347.342 z M168.065,156.867 L57.268,192.73 L95.033,230.457 L168.065,156.867 z M316.921,174.011 C322.042,174.011 327.164,175.96 331.063,179.859 C338.861,187.658 338.861,200.345 331.063,208.143 C323.265,215.942 310.576,215.942 302.778,208.143 C294.98,200.345 294.98,187.658 302.778,179.86 C306.677,175.96 311.798,174.011 316.921,174.011 z M317.239,134.048 L314.041,134.098 C298.418,135.591 285.825,140.338 274.495,151.575 C251.101,174.97 251.101,213.034 274.495,236.429 C286.192,248.125 301.557,253.974 316.921,253.974 C332.285,253.974 347.651,248.125 359.348,236.428 C382.742,213.034 382.742,174.97 359.348,151.575 C347.601,140.91 333.282,134.266 317.239,134.048 z M397.046,97.105 L395.001,97.002 C383.955,97.002 375.001,105.956 375.001,117.002 C375.001,128.048 383.955,137.002 395.001,137.002 C406.047,137.002 415.001,128.048 415.001,117.002 C414.472,106.536 407.481,98.622 397.046,97.105 z" fill="#5FECC8"/>
  </g>
</svg>
