<?xml version="1.0" encoding="UTF-8"?>
<!DOCTYPE svg PUBLIC "-//W3C//DTD SVG 1.1//EN" "http://www.w3.org/Graphics/SVG/1.1/DTD/svg11.dtd">
<svg version="1.1" xmlns="http://www.w3.org/2000/svg" xmlns:xlink="http://www.w3.org/1999/xlink" x="0" y="0" width="511.997" height="511.997" viewBox="0, 0, 511.997, 511.997">
  <g id="Layer_1">
    <path d="M500.605,86.769 C515.613,51.123 515.793,25.619 501.141,10.967 C486.556,-3.619 460.968,-3.642 425.087,10.902 C400.786,20.752 375.319,36.126 363.157,48.288 C363.094,48.35 363.033,48.413 362.972,48.475 L320.862,91.705 L270.494,82.088 L277.297,75.285 C285.107,67.474 285.107,54.811 277.297,47.001 C269.486,39.19 256.822,39.19 249.012,47.001 L222.994,73.019 L186.526,66.056 L187.297,65.285 C195.107,57.474 195.107,44.811 187.297,37.001 C179.486,29.19 166.822,29.19 159.012,37.001 L139.026,56.987 L113.822,52.175 C94.967,48.575 75.374,54.287 61.408,67.455 L6.279,119.434 C-1.757,127.012 -2.129,139.669 5.448,147.706 C9.383,151.879 14.687,153.986 20.004,153.986 C24.925,153.986 29.857,152.18 33.721,148.538 L44.03,138.818 L193.927,213.227 L107.058,300.701 L69.895,299.038 C69.571,299.023 69.253,299.017 68.929,299.018 C45.076,299.018 21.967,308.92 5.517,326.194 C1.077,330.857 -0.847,337.373 0.348,343.7 C1.543,350.027 5.712,355.392 11.548,358.113 L108.278,403.216 L157.109,500.927 C160.022,506.756 165.591,510.8 172.036,511.765 C173.026,511.913 174.015,511.986 175.001,511.986 C180.432,511.986 185.681,509.772 189.484,505.777 L190.843,504.349 C206.42,487.993 214.999,466.547 214.999,443.96 L214.999,397.209 L300.675,311.064 L340.569,396.451 C345.246,406.459 357.151,410.781 367.155,406.105 C377.162,401.43 381.485,389.527 376.809,379.52 L324.799,268.2 C322.033,262.282 316.553,258.087 310.117,256.964 C303.688,255.841 297.105,257.931 292.498,262.563 L180.819,374.853 C177.091,378.601 175,383.671 175,388.957 L175,443.96 C175,444.994 174.967,446.025 174.901,447.049 L140.941,379.095 C138.921,375.055 135.595,371.818 131.503,369.909 L65.517,339.141 C66.535,339.067 67.556,339.026 68.581,339.018 L114.115,341.056 C119.775,341.319 125.227,339.17 129.201,335.169 L241.546,222.041 C242.351,221.265 243.096,220.414 243.773,219.493 C243.807,219.447 243.841,219.4 243.875,219.354 C243.887,219.337 243.899,219.32 243.912,219.303 C245.355,217.297 246.381,215.086 246.991,212.786 C247.708,210.104 247.841,207.357 247.445,204.706 C247.443,204.691 247.441,204.676 247.438,204.661 C247.43,204.61 247.422,204.559 247.415,204.508 C246.961,201.634 245.88,198.841 244.172,196.349 C242.873,194.446 241.232,192.75 239.284,191.362 C239.251,191.339 239.219,191.315 239.186,191.292 C239.181,191.289 239.176,191.285 239.171,191.282 C238.206,190.601 237.195,190.016 236.15,189.527 L75.056,109.563 L88.85,96.557 C93.505,92.167 100.036,90.265 106.321,91.463 L321.171,132.485 C328.225,134.845 336.321,133.159 341.859,127.475 L391.523,76.492 C398.048,70.014 414.992,58.929 434.892,50.179 C455.039,41.321 467.017,39.773 472.04,39.984 C472.165,44.958 470.436,56.797 461.39,76.598 C452.435,96.199 441.103,113.102 434.536,119.668 C434.488,119.716 434.44,119.764 434.392,119.813 L386.047,169.155 C380.538,173.649 377.606,180.945 379.032,188.418 L420.521,405.662 C421.721,411.947 419.817,418.479 415.428,423.135 L363.448,478.265 C355.871,486.302 356.243,498.959 364.279,506.537 C368.143,510.18 373.074,511.985 377.996,511.985 C383.311,511.985 388.617,509.878 392.552,505.705 L444.532,450.574 C457.7,436.608 463.412,417.013 459.812,398.159 L454.996,372.941 L474.976,352.961 C482.786,345.15 482.786,332.487 474.976,324.677 C467.165,316.866 454.501,316.866 446.691,324.677 L445.925,325.443 L438.961,288.977 L464.976,262.962 C472.786,255.151 472.786,242.488 464.976,234.678 C457.165,226.867 444.501,226.867 436.691,234.678 L429.89,241.479 L420.314,191.337 L462.899,147.874 C475.115,135.618 490.608,110.515 500.605,86.769 z" fill="#5FECC8"/>
  </g>
</svg>
