<?xml version="1.0" encoding="UTF-8"?>
<!DOCTYPE svg PUBLIC "-//W3C//DTD SVG 1.1//EN" "http://www.w3.org/Graphics/SVG/1.1/DTD/svg11.dtd">
<svg version="1.1" xmlns="http://www.w3.org/2000/svg" xmlns:xlink="http://www.w3.org/1999/xlink" x="0" y="0" width="511.999" height="511.999" viewBox="0, 0, 511.999, 511.999">
  <g id="Layer_1">
    <path d="M493.89,45.897 L465.429,17.5 C442.01,-5.867 403.944,-5.825 380.586,17.583 L318.906,79.296 L175.452,114.055 C134.247,124.039 101.049,155.458 88.813,196.05 L1.338,486.225 C-0.789,493.282 1.137,500.937 6.351,506.146 C10.157,509.949 15.264,511.999 20.49,511.999 C22.422,511.999 24.371,511.719 26.276,511.143 L315.416,423.729 C356.036,411.448 387.437,378.189 397.363,336.932 L410.622,281.827 C413.206,271.087 406.595,260.286 395.855,257.702 C385.113,255.122 374.314,261.73 371.73,272.47 L358.472,327.575 C351.854,355.08 330.921,377.252 303.84,385.44 L91.032,449.775 L177.949,362.828 C184.888,361.242 197.13,358.306 210.334,354.495 C249.087,343.307 261.092,334.838 267.22,328.709 C290.225,305.704 290.225,268.271 267.22,245.267 C244.215,222.263 206.782,222.262 183.778,245.267 C177.65,251.395 169.179,263.4 157.992,302.153 C154.178,315.367 151.24,327.616 149.655,334.553 L62.585,421.653 L127.113,207.595 C135.27,180.534 157.403,159.588 184.872,152.931 L323.537,119.332 L400.37,196.128 C404.12,199.877 409.206,201.982 414.51,201.982 L414.515,201.982 C419.82,201.981 424.907,199.872 428.657,196.12 L493.986,130.756 C505.308,119.41 511.533,104.336 511.515,88.307 C511.495,72.279 505.237,57.217 493.89,45.897 z M212.079,273.535 C219.489,266.143 231.532,266.148 238.934,273.551 C246.342,280.959 246.342,293.014 238.959,300.398 C234.607,304.484 216.826,311.146 195.258,317.228 C201.335,295.674 207.992,277.905 212.079,273.535 z M465.679,102.49 L414.5,153.695 L357.771,96.992 L408.889,45.846 C416.679,38.04 429.368,38.026 437.174,45.815 L465.635,74.212 C469.417,77.985 471.503,83.006 471.509,88.349 C471.516,93.692 469.442,98.719 465.679,102.49 z" fill="#5FECC8"/>
  </g>
</svg>
